<svg width="900" height="620" viewBox="0 0 900 620" fill="none" xmlns="http://www.w3.org/2000/svg">
  <g opacity="0.96">
    <path d="M118 155H782" stroke="#353332" stroke-width="5" stroke-linecap="round"/>
    <path d="M118 155V500M782 155V500" stroke="#2A2928" stroke-width="5"/>
    <path d="M70 210H260M640 210H830M70 330H260M640 330H830" stroke="#403D39" stroke-width="9" stroke-linecap="round"/>
    <g stroke="#5A5650" stroke-width="5">
      <path d="M95 194H235M95 184H235M95 174H235M665 194H805M665 184H805M665 174H805"/>
      <path d="M95 314H235M95 304H235M95 294H235M665 314H805M665 304H805M665 294H805"/>
    </g>
    <path d="M330 35V105M570 35V105" stroke="#302E2B" stroke-width="5"/>
    <path d="M292 108C292 96 302 86 314 86H346C358 86 368 96 368 108L355 134H305L292 108Z" fill="#242321" stroke="#48443F" stroke-width="4"/>
    <path d="M532 108C532 96 542 86 554 86H586C598 86 608 96 608 108L595 134H545L532 108Z" fill="#242321" stroke="#48443F" stroke-width="4"/>
    <path d="M307 126H353M547 126H593" stroke="#E2793D" stroke-width="9" stroke-linecap="round"/>
    <path d="M245 218H655" stroke="#5A5650" stroke-width="7" stroke-linecap="round"/>
    <path d="M275 218V250M345 218V250M415 218V250M485 218V250M555 218V250" stroke="#514D48" stroke-width="4"/>
    <path d="M268 250V335M258 250V285M268 250V285M278 250V285" stroke="#8A6A4B" stroke-width="6" stroke-linecap="round"/>
    <path d="M338 250V340" stroke="#8A6A4B" stroke-width="6" stroke-linecap="round"/>
    <path d="M328 250C328 272 348 272 348 250" stroke="#8A6A4B" stroke-width="6"/>
    <circle cx="418" cy="305" r="28" stroke="#8A6A4B" stroke-width="7"/>
    <path d="M418 277V250" stroke="#8A6A4B" stroke-width="6"/>
    <circle cx="488" cy="315" r="35" stroke="#8A6A4B" stroke-width="7"/>
    <path d="M488 280V250" stroke="#8A6A4B" stroke-width="6"/>
    <path d="M548 250V330" stroke="#8A6A4B" stroke-width="6"/>
    <path d="M538 250C538 272 558 272 558 250" stroke="#8A6A4B" stroke-width="6"/>
    <g fill="#E8D8BE">
      <path d="M375 220H425V300H375V220Z"/>
      <path d="M445 220H495V300H445V220Z"/>
      <path d="M515 220H565V300H515V220Z"/>
    </g>
    <g stroke="#8C7C67" stroke-width="3" opacity="0.8">
      <path d="M385 240H415M385 252H410M385 264H418M455 240H485M455 252H480M455 264H488M525 240H555M525 252H550M525 264H558"/>
    </g>
    <path d="M55 440H845V475H55V440Z" fill="#272522"/>
    <path d="M55 440H845" stroke="#E2793D" stroke-width="5"/>
    <path d="M105 475V540M795 475V540" stroke="#292725" stroke-width="10"/>
    <path d="M150 430C150 410 170 398 190 398C210 398 230 410 230 430H150Z" fill="#3A3733"/>
    <path d="M166 398C166 382 214 382 214 398" stroke="#8A6A4B" stroke-width="5"/>
    <path d="M300 420H390V440H300V420Z" fill="#3D3934"/>
    <ellipse cx="345" cy="420" rx="45" ry="12" fill="#E2793D" opacity="0.8"/>
    <path d="M610 405H650V440H610V405Z" fill="#7A4D2F"/>
    <path d="M620 392H640V407H620V392Z" fill="#7A4D2F"/>
    <path d="M690 420C690 402 705 388 723 388C741 388 756 402 756 420V440H690V420Z" fill="#35322E"/>
    <path d="M700 388C708 370 718 364 723 360M723 388C730 372 738 368 744 365" stroke="#617054" stroke-width="5" stroke-linecap="round"/>
    <path d="M170 540H730" stroke="#252321" stroke-width="18" stroke-linecap="round"/>
  </g>
</svg>
